# xmcd
#
# Track frame offsets:
#	150
#	15618
#	30747
#	51560
#	64760
#	81965
#	102360
#	116430
#	148813
#	161886
#	174670
#	188981
#	205694
#
# Disc length: 3090 seconds
#
# Revision: 0
# Processed by: cddbd v1.5.1PL0 Copyright (c) Steve Scherf et al.
# Submitted via: CDmax 2.0
#
DISCID=bb0c100d
DTITLE=Various Artist - Black and White Blues - Get Up And Play (3)
DYEAR=1900
DGENRE=Blues
TTITLE0=Abi Wallenstein - Blues Harp Boogie
TTITLE1=Peter Chatman - Beer Drinking Woman
TTITLE2=Alvin Lee - Real Life Blues
TTITLE3=Peter Chatman - Jasper's Girl
TTITLE4=Canned Heat - Creole Queen
TTITLE5=Art Hodes - Mojo Blues
TTITLE6=Muddy Waters - I Be's Troubled
TTITLE7=Snowy White - Looking For Somebody
TTITLE8=Mitch Woods - Rocket 88
TTITLE9=Sonny Terry - Airplane Blues
TTITLE10=T-Bone Walker - I Can't Stand Being Away From You
TTITLE11=Alvin Lee - I Hear You Knockin
TTITLE12=Foghat - Louisiana Blues
EXTD=
EXTT0=
EXTT1=
EXTT2=
EXTT3=
EXTT4=
EXTT5=
EXTT6=
EXTT7=
EXTT8=
EXTT9=
EXTT10=
EXTT11=
EXTT12=
PLAYORDER=
